<?xml version="1.0" encoding="UTF-8"?>
<svg xmlns="http://www.w3.org/2000/svg" viewBox="0 0 396.87 170.31" role="img" aria-label="teula">
  <g fill="#014751">
    <rect y="113.54" width="56.77" height="56.77"/>
    <rect x="113.95" y="113.54" width="56.77" height="56.77"/>
    <polygon points="113.54 56.77 113.54 113.54 56.77 113.54 56.77 56.77 0 56.77 0 0 170.31 0 170.31 56.77 113.54 56.77"/>
    <path d="M177.2,99.71v-19.42h-5.55v-12.02h6.93l2.77-11h10.63v11h10.08v12.02h-10.08v16.18c0,1.73.22,2.91.65,3.56.43.65,1.42.97,2.96.97.99,0,2.03-.05,3.14-.14,1.11-.09,2.22-.2,3.33-.32l.28.18v12.02c-2.96.86-6.87,1.29-11.74,1.29s-8.32-1.11-10.35-3.33-3.05-5.88-3.05-11Z"/>
    <path d="M253.75,111.73c-1.73.62-4.11,1.16-7.17,1.62s-6.67.69-10.86.69c-5.3,0-9.82-.69-13.54-2.08-3.73-1.39-6.55-3.76-8.46-7.12-1.91-3.36-2.87-8.03-2.87-14.01,0-8.14,1.86-14.02,5.59-17.66,3.73-3.64,9.51-5.46,17.33-5.46,5.61,0,10.03.8,13.27,2.4,3.24,1.6,5.55,3.87,6.93,6.79,1.39,2.93,2.08,6.39,2.08,10.4,0,1.17-.05,2.44-.14,3.79-.09,1.36-.26,2.68-.51,3.98l-.37.37h-30.42c.43,2.71,1.71,4.5,3.84,5.36,2.13.86,5.59,1.29,10.4,1.29,3.2,0,5.87-.08,8-.23,2.13-.15,4.3-.38,6.52-.69l.37.28v10.26ZM243.21,85.75c0-1.48-.23-2.76-.69-3.84-.46-1.08-1.37-1.91-2.73-2.5-1.36-.58-3.36-.88-6.01-.88-3.88,0-6.43.66-7.63,1.99-1.2,1.33-1.8,3.07-1.8,5.22h18.86Z"/>
    <path d="M282.13,114.04c-5.67,0-9.71-1.51-12.11-4.53-2.4-3.02-3.61-7.33-3.61-12.94v-28.38h14.79l.09,24.78c0,2.77.49,4.73,1.48,5.87.99,1.14,2.99,1.71,6.01,1.71s4.85-.51,5.87-1.53c1.02-1.02,1.56-2.76,1.62-5.22v-25.61h14.79v45.02h-14.05l-.74-5.08h-.28c-.8,1.79-2.44,3.22-4.9,4.3-2.47,1.08-5.46,1.62-8.97,1.62Z"/>
    <path d="M340.38,113.21h-14.79v-62.22h14.79v62.22Z"/>
    <path d="M372,67.73c5.92,0,10.69.62,14.33,1.85,3.64,1.23,6.3,3.5,8,6.79,1.69,3.3,2.54,8.06,2.54,14.28v22.56h-13.41l-.46-4.25h-.28c-1.17,1.54-2.99,2.77-5.46,3.7-2.47.92-5.67,1.39-9.61,1.39-10.66,0-15.99-4.99-15.99-14.98,0-4.25,1.4-7.59,4.21-10.03,2.8-2.43,7.23-3.65,13.27-3.65h13.68c-.43-2.59-1.54-4.33-3.33-5.22-1.79-.89-4.84-1.34-9.15-1.34-2.71,0-5.38.2-8,.6-2.62.4-4.92.85-6.89,1.34l-.28-.19.09-10.72c1.23-.37,2.8-.72,4.71-1.06,1.91-.34,3.93-.6,6.06-.79,2.13-.18,4.11-.28,5.96-.28ZM371.44,103.13c3.82,0,6.69-.48,8.6-1.43,1.91-.96,2.9-2.48,2.96-4.58v-2.31h-10.45c-2.71,0-4.61.39-5.69,1.16-1.08.77-1.62,1.8-1.62,3.1,0,1.54.55,2.6,1.66,3.19s2.62.88,4.53.88Z"/>
  </g>
</svg>
